# Blender 3.5.1
# www.blender.org
mtllib Switch electric.mtl
o Cube.001
v 1.806295 -1.043540 0.815590
v 1.806295 -0.943540 0.715590
v 1.706295 -0.943540 0.815590
v 0.026585 -1.043540 0.815590
v 0.126585 -0.943540 0.815590
v 0.026585 -0.943540 0.715590
v 1.806295 -0.943540 0.573611
v 1.806295 -1.043540 0.473611
v 1.706295 -0.943540 0.473611
v 0.126585 -0.943540 0.473612
v 0.026585 -1.043540 0.473612
v 0.026585 -0.943540 0.573612
v 1.706295 -1.172361 0.815590
v 1.806295 -1.172361 0.715590
v 1.806295 -1.072361 0.815590
v 0.126585 -1.172361 0.815590
v 0.026585 -1.072361 0.815590
v 0.026585 -1.172361 0.715590
v 1.706295 -1.172361 0.473611
v 1.806295 -1.072361 0.473611
v 1.806295 -1.172361 0.573611
v 0.026585 -1.072361 0.473612
v 0.126585 -1.172361 0.473612
v 0.026585 -1.172361 0.573612
v 1.706295 -0.943540 -0.815590
v 1.806295 -0.943540 -0.715590
v 1.806295 -1.043540 -0.815590
v 0.026585 -0.943540 -0.715590
v 0.126585 -0.943540 -0.815590
v 0.026585 -1.043540 -0.815590
v 1.706295 -0.943540 -0.473612
v 1.806295 -1.043540 -0.473612
v 1.806295 -0.943540 -0.573612
v 0.026585 -0.943540 -0.573611
v 0.026585 -1.043540 -0.473611
v 0.126585 -0.943540 -0.473611
v 1.806295 -1.072361 -0.815590
v 1.806295 -1.172361 -0.715590
v 1.706295 -1.172361 -0.815590
v 0.026585 -1.172361 -0.715590
v 0.026585 -1.072361 -0.815590
v 0.126585 -1.172361 -0.815590
v 1.806295 -1.172361 -0.573612
v 1.806295 -1.072361 -0.473612
v 1.706295 -1.172361 -0.473612
v 0.026585 -1.172361 -0.573611
v 0.126585 -1.172361 -0.473611
v 0.026585 -1.072361 -0.473611
vn -1.0000 -0.0000 -0.0000
vn -0.0000 -1.0000 -0.0000
vn -0.0000 -0.0000 -1.0000
vn 1.0000 -0.0000 -0.0000
vn -0.0000 1.0000 -0.0000
vn -0.0000 -0.0000 1.0000
vn 0.5773 0.5774 0.5773
vn -0.5774 0.5774 0.5774
vn 0.5773 0.5774 -0.5774
vn -0.5774 0.5773 -0.5774
vn 0.5773 -0.5774 0.5774
vn -0.5774 -0.5773 0.5774
vn 0.5773 -0.5774 -0.5774
vn -0.5774 -0.5773 -0.5774
vn -0.5774 0.5774 -0.5774
vn 0.5774 0.5773 0.5774
vn 0.5774 -0.5773 0.5774
vt 0.775957 0.351146
vt 0.852305 0.312919
vt 0.751372 0.351146
vt 0.842967 0.442426
vt 0.834762 0.312919
vt 0.825530 0.459864
vt 0.834762 0.295375
vt 0.624905 0.412293
vt 0.852305 0.000692
vt 0.825530 0.735330
vt 0.607025 0.412293
vt 0.834762 0.018236
vt 0.842967 0.752768
vt 0.607025 0.394412
vt 0.733920 0.368599
vt 0.867725 0.442426
vt 0.904013 0.442426
vt 0.733920 0.393184
vt 0.885163 0.442426
vt 0.886548 0.459891
vt 0.885163 0.459864
vt 0.885163 0.735330
vt 0.886548 0.735791
vt 0.624905 0.351146
vt 0.904013 0.753256
vt 0.607025 0.369027
vt 0.867725 0.752768
vt 0.886548 0.753256
vt 0.762948 0.459968
vt 0.874905 0.295375
vt 0.745406 0.442426
vt 0.779500 0.379274
vt 0.874905 0.312919
vt 0.779500 0.354689
vt 0.857362 0.312919
vt 0.762948 0.737075
vt 0.874905 0.018236
vt 0.630059 0.412293
vt 0.762948 0.754617
vt 0.857362 0.000692
vt 0.647939 0.394412
vt 0.745406 0.754617
vt 0.926512 0.459891
vt 0.702959 0.459968
vt 0.909046 0.442426
vt 0.737462 0.396727
vt 0.702959 0.442426
vt 0.762048 0.396727
vt 0.720501 0.442426
vt 0.630059 0.351146
vt 0.909046 0.753256
vt 0.702959 0.754617
vt 0.926512 0.735791
vt 0.702959 0.737075
vt 0.647939 0.369027
vt 0.720501 0.754617
vt 0.876290 0.018236
vt 0.764332 0.736211
vt 0.732535 0.369027
vt 0.781823 0.753702
vt 0.893833 0.000692
vt 0.714655 0.351146
vt 0.764332 0.753702
vt 0.690237 0.394413
vt 0.781823 0.442426
vt 0.876290 0.312919
vt 0.764332 0.459917
vt 0.876290 0.295376
vt 0.672357 0.412293
vt 0.893834 0.312919
vt 0.626709 0.635118
vt 0.824145 0.736211
vt 0.609244 0.617653
vt 0.714655 0.412293
vt 0.824145 0.753702
vt 0.732535 0.394413
vt 0.806655 0.753702
vt 0.806655 0.442426
vt 0.690237 0.369027
vt 0.609244 0.928483
vt 0.672357 0.351146
vt 0.626709 0.911017
vt 0.824145 0.459917
vt 0.690237 0.351146
vt 0.898890 0.000692
vt 0.709502 0.351146
vt 0.815939 0.311034
vt 0.691621 0.369027
vt 0.916433 0.018236
vt 0.833377 0.293596
vt 0.691621 0.351146
vt 0.649323 0.394413
vt 0.815939 0.000692
vt 0.916433 0.312919
vt 0.667203 0.412293
vt 0.898890 0.312919
vt 0.833377 0.018130
vt 0.916433 0.295376
vt 0.791181 0.311034
vt 0.691621 0.394413
vt 0.586745 0.617653
vt 0.709502 0.412293
vt 0.604211 0.617653
vt 0.773744 0.293596
vt 0.586745 0.635118
vt 0.649323 0.369027
vt 0.791181 0.000692
vt 0.586745 0.911017
vt 0.773744 0.018130
vt 0.667203 0.351146
vt 0.604211 0.928483
vt 0.773744 0.000692
s 0
f 18/41/1 17/38/1 4/8/1 6/14/1 12/26/1 11/24/1 22/50/1 24/55/1
f 24/56/2 23/54/2 19/44/2 21/49/2 14/31/2 13/29/2 16/36/2 18/42/2
f 42/98/3 41/96/3 30/70/3 29/68/3 25/57/3 27/61/3 37/85/3 39/89/3
f 11/25/3 10/23/3 9/20/3 8/17/3 20/45/3 19/43/3 23/53/3 22/51/3
f 2/3/4 1/1/4 15/34/4 14/32/4 21/48/4 20/46/4 8/18/4 7/15/4
f 6/13/5 5/10/5 3/6/5 2/4/5 7/16/5 9/21/5 10/22/5 12/27/5
f 41/95/1 40/92/1 46/106/1 48/110/1 35/81/1 34/79/1 28/64/1 30/69/1
f 47/109/2 46/107/2 40/93/2 42/97/2 39/90/2 38/87/2 43/99/2 45/104/2
f 36/82/6 35/80/6 48/111/6 47/108/6 45/105/6 44/103/6 32/73/6 31/71/6
f 27/62/4 26/59/4 33/76/4 32/74/4 44/102/4 43/100/4 38/88/4 37/86/4
f 29/67/5 28/65/5 34/78/5 36/83/5 31/72/5 33/77/5 26/60/5 25/58/5
f 1/2/7 2/5/7 3/7/7
f 4/8/8 5/11/8 6/14/8
f 7/16/9 8/19/9 9/21/9
f 10/23/10 11/25/10 12/28/10
f 13/30/11 14/33/11 15/35/11
f 16/36/12 17/39/12 18/42/12
f 19/44/13 20/47/13 21/49/13
f 22/52/14 23/54/14 24/56/14
f 25/58/9 26/60/9 27/63/9
f 28/66/15 29/68/15 30/70/15
f 31/72/16 32/75/16 33/77/16
f 34/79/8 35/81/8 36/84/8
f 37/86/13 38/88/13 39/91/13
f 40/94/14 41/96/14 42/98/14
f 43/101/17 44/103/17 45/105/17
f 46/107/12 47/109/12 48/112/12
f 17/40/6 16/37/6 13/30/6 15/35/6 1/2/6 3/7/6 5/12/6 4/9/6
o Cube.002
v 0.242568 -1.115106 0.735233
v 0.337098 -1.020576 0.735233
v 0.242568 -1.020576 0.640703
v 0.242567 -1.115106 -0.735233
v 0.242567 -1.020576 -0.640703
v 0.337098 -1.020576 -0.735233
v 0.430593 -1.020576 0.735233
v 0.525123 -1.115106 0.735233
v 0.525123 -1.020576 0.640703
v 0.525123 -1.020576 -0.640703
v 0.525123 -1.115107 -0.735233
v 0.430593 -1.020576 -0.735233
v 0.242568 -1.209637 0.640703
v 0.337098 -1.209637 0.735233
v 0.242568 -1.115106 0.735233
v 0.242567 -1.209637 -0.640703
v 0.242567 -1.115106 -0.735233
v 0.337098 -1.209637 -0.735233
v 0.525123 -1.209637 0.640703
v 0.525123 -1.115106 0.735233
v 0.430593 -1.209637 0.735233
v 0.525123 -1.115107 -0.735233
v 0.525123 -1.209637 -0.640703
v 0.430593 -1.209637 -0.735233
vn -0.0000 -0.0000 -1.0000
vn -0.0000 -1.0000 -0.0000
vn 1.0000 -0.0000 -0.0000
vn -0.0000 -0.0000 1.0000
vn -0.0000 1.0000 -0.0000
vn -0.5773 0.5774 0.5774
vn -0.5773 0.5774 -0.5774
vn 0.5773 0.5774 0.5774
vn 0.5774 0.5773 -0.5774
vn -0.5774 -0.5773 0.5774
vn -0.5773 -0.5773 -0.5774
vn 0.5774 -0.5773 0.5774
vn 0.5774 -0.5774 -0.5774
vn -1.0000 -0.0000 -0.0000
vt 0.084807 0.888589
vt 0.934450 0.259411
vt 0.084807 0.864417
vt 0.568927 0.873283
vt 0.917818 0.259411
vt 0.585361 0.856850
vt 0.917818 0.242779
vt 0.148426 0.792880
vt 0.934450 0.000692
vt 0.585361 0.634087
vt 0.166026 0.792880
vt 0.917818 0.017324
vt 0.568927 0.617653
vt 0.166026 0.810481
vt 0.552674 0.873283
vt 0.072854 0.852464
vt 0.184787 0.442426
vt 0.048682 0.852464
vt 0.168155 0.459058
vt 0.536241 0.856849
vt 0.060768 0.840378
vt 0.536241 0.634087
vt 0.168155 0.684513
vt 0.148426 0.845488
vt 0.184787 0.701145
vt 0.166026 0.827888
vt 0.552674 0.617653
vt 0.168155 0.701145
vt 0.420226 0.857820
vt 0.951082 0.242779
vt 0.436726 0.874320
vt 0.060636 0.888589
vt 0.951082 0.259411
vt 0.084807 0.888589
vt 0.934450 0.259411
vt 0.420226 0.634153
vt 0.130826 0.792880
vt 0.951082 0.017324
vt 0.148426 0.792880
vt 0.934450 0.000692
vt 0.436726 0.617653
vt 0.130826 0.810481
vt 0.201419 0.459058
vt 0.469546 0.857820
vt 0.184787 0.442426
vt 0.048682 0.852464
vt 0.469546 0.874320
vt 0.048682 0.876635
vt 0.453046 0.874320
vt 0.148426 0.845488
vt 0.184787 0.701145
vt 0.469546 0.634153
vt 0.201419 0.684513
vt 0.130826 0.827888
vt 0.453046 0.617653
vt 0.201419 0.701145
s 0
f 66/154/18 65/151/18 52/120/18 54/126/18 60/138/18 59/136/18 70/162/18 72/166/18
f 72/167/19 71/164/19 67/156/19 69/161/19 62/143/19 61/141/19 64/148/19 66/153/19
f 59/137/20 58/135/20 57/131/20 56/129/20 68/157/20 67/155/20 71/165/20 70/163/20
f 50/115/21 49/113/21 63/146/21 62/144/21 69/160/21 68/158/21 56/130/21 55/128/21
f 54/125/22 53/122/22 51/118/22 50/116/22 55/127/22 57/132/22 58/134/22 60/139/22
f 49/114/23 50/117/23 51/119/23
f 52/120/24 53/123/24 54/126/24
f 55/128/25 56/130/25 57/133/25
f 58/135/26 59/137/26 60/140/26
f 61/142/27 62/145/27 63/147/27
f 64/149/28 65/151/28 66/154/28
f 67/156/29 68/159/29 69/161/29
f 70/163/30 71/165/30 72/168/30
f 65/152/31 64/150/31 61/142/31 63/147/31 49/114/31 51/119/31 53/124/31 52/121/31
o Cube.003
v 1.131870 -1.115106 0.735233
v 1.226400 -1.020576 0.735233
v 1.131870 -1.020576 0.640703
v 1.131869 -1.115106 -0.735233
v 1.131869 -1.020576 -0.640703
v 1.226400 -1.020576 -0.735233
v 1.319895 -1.020576 0.735233
v 1.414426 -1.115106 0.735233
v 1.414426 -1.020576 0.640703
v 1.414425 -1.020576 -0.640703
v 1.414425 -1.115107 -0.735233
v 1.319895 -1.020576 -0.735233
v 1.131870 -1.209637 0.640703
v 1.226400 -1.209637 0.735233
v 1.131870 -1.115106 0.735233
v 1.131869 -1.209637 -0.640703
v 1.131869 -1.115106 -0.735233
v 1.226400 -1.209637 -0.735233
v 1.414425 -1.209637 0.640703
v 1.414426 -1.115106 0.735233
v 1.319895 -1.209637 0.735233
v 1.414425 -1.115107 -0.735233
v 1.414425 -1.209637 -0.640703
v 1.319895 -1.209637 -0.735233
vn -0.0000 -0.0000 -1.0000
vn -0.0000 -1.0000 -0.0000
vn 1.0000 -0.0000 -0.0000
vn -0.0000 -0.0000 1.0000
vn -0.0000 1.0000 -0.0000
vn -0.5773 0.5774 0.5774
vn -0.5773 0.5774 -0.5774
vn 0.5773 0.5774 0.5774
vn 0.5774 0.5773 -0.5774
vn -0.5774 -0.5773 0.5774
vn -0.5773 -0.5773 -0.5774
vn 0.5774 -0.5773 0.5774
vn 0.5774 -0.5773 -0.5774
vn -1.0000 -0.0000 -0.0000
vt 0.238928 0.888588
vt 0.644726 0.876372
vt 0.238928 0.864417
vt 0.503617 0.873283
vt 0.628094 0.876372
vt 0.520051 0.856849
vt 0.628094 0.859740
vt 0.348653 0.845488
vt 0.644726 0.617653
vt 0.520051 0.634087
vt 0.331052 0.845488
vt 0.628094 0.634285
vt 0.503617 0.617653
vt 0.331052 0.827888
vt 0.487364 0.873283
vt 0.226975 0.852464
vt 0.684943 0.617653
vt 0.202803 0.852464
vt 0.668311 0.634285
vt 0.470930 0.856849
vt 0.214889 0.840378
vt 0.470930 0.634087
vt 0.668311 0.859740
vt 0.348653 0.792880
vt 0.684943 0.876372
vt 0.331052 0.810481
vt 0.487364 0.617653
vt 0.668311 0.876372
vt 0.369522 0.857820
vt 0.661358 0.859740
vt 0.386022 0.874321
vt 0.214757 0.888588
vt 0.661358 0.876372
vt 0.238928 0.888588
vt 0.644726 0.876372
vt 0.369522 0.634153
vt 0.366253 0.845488
vt 0.661358 0.634285
vt 0.348653 0.845488
vt 0.644726 0.617653
vt 0.386022 0.617653
vt 0.366253 0.827888
vt 0.701575 0.634285
vt 0.418841 0.857820
vt 0.684943 0.617653
vt 0.202803 0.852464
vt 0.418842 0.874321
vt 0.202803 0.876635
vt 0.402341 0.874321
vt 0.348653 0.792880
vt 0.684943 0.876372
vt 0.418842 0.634153
vt 0.701575 0.859740
vt 0.366253 0.810481
vt 0.402341 0.617653
vt 0.701575 0.876372
s 0
f 90/210/32 89/207/32 76/176/32 78/182/32 84/194/32 83/192/32 94/218/32 96/222/32
f 96/223/33 95/220/33 91/212/33 93/217/33 86/199/33 85/197/33 88/204/33 90/209/33
f 83/193/34 82/191/34 81/187/34 80/185/34 92/213/34 91/211/34 95/221/34 94/219/34
f 74/171/35 73/169/35 87/202/35 86/200/35 93/216/35 92/214/35 80/186/35 79/184/35
f 78/181/36 77/178/36 75/174/36 74/172/36 79/183/36 81/188/36 82/190/36 84/195/36
f 73/170/37 74/173/37 75/175/37
f 76/176/38 77/179/38 78/182/38
f 79/184/39 80/186/39 81/189/39
f 82/191/40 83/193/40 84/196/40
f 85/198/41 86/201/41 87/203/41
f 88/205/42 89/207/42 90/210/42
f 91/212/43 92/215/43 93/217/43
f 94/219/44 95/221/44 96/224/44
f 89/208/45 88/206/45 85/198/45 87/203/45 73/170/45 75/175/45 77/180/45 76/177/45
o Kostka
v 1.898622 -1.223563 0.942737
v 1.898622 -1.126840 0.942737
v -0.634415 -1.223563 0.942737
v -0.634415 -1.126840 0.942737
v 1.898622 -1.223563 0.369397
v 1.898622 -1.126840 0.369397
v -0.634415 -1.223563 0.369397
v -0.634415 -1.126840 0.369397
vn -0.0000 -0.0000 1.0000
vn -1.0000 -0.0000 -0.0000
vn -0.0000 -0.0000 -1.0000
vn 1.0000 -0.0000 -0.0000
vn -0.0000 -1.0000 -0.0000
vn -0.0000 1.0000 -0.0000
vt 0.927896 0.442426
vt 0.288303 0.940049
vt 0.000692 0.441042
vt 0.944711 0.442426
vt 0.305117 0.940049
vt 0.303859 0.000692
vt 0.927896 0.882776
vt 0.902719 0.338860
vt 0.000692 0.000692
vt 0.944711 0.882776
vt 0.919533 0.338860
vt 0.303859 0.441042
vt 0.946095 0.882776
vt 0.288303 0.840378
vt 0.100363 0.441042
vt 0.962910 0.882776
vt 0.305117 0.840378
vt 0.403530 0.000692
vt 0.902719 0.438531
vt 0.946095 0.442426
vt 0.100363 0.000692
vt 0.919533 0.438531
vt 0.962910 0.442426
vt 0.403530 0.441042
s 0
f 97/225/46 98/228/46 100/234/46 99/231/46
f 99/232/47 100/235/47 104/246/47 103/243/47
f 103/244/48 104/247/48 102/240/48 101/237/48
f 101/238/49 102/241/49 98/229/49 97/226/49
f 99/233/50 103/245/50 101/239/50 97/227/50
f 104/248/51 100/236/51 98/230/51 102/242/51
o Kostka.001
v 1.898622 -1.223563 0.284817
v 1.898622 -1.126840 0.284817
v -0.634415 -1.223563 0.284817
v -0.634415 -1.126840 0.284817
v 1.898622 -1.223563 -0.288523
v 1.898622 -1.126840 -0.288523
v -0.634415 -1.223563 -0.288523
v -0.634415 -1.126840 -0.288523
vn -0.0000 -0.0000 1.0000
vn -1.0000 -0.0000 -0.0000
vn -0.0000 -0.0000 -1.0000
vn 1.0000 -0.0000 -0.0000
vn -0.0000 -1.0000 -0.0000
vn -0.0000 1.0000 -0.0000
vt 0.964294 0.442426
vt 0.240313 0.940049
vt 0.101748 0.441042
vt 0.981109 0.442426
vt 0.257127 0.940049
vt 0.605640 0.441042
vt 0.964294 0.882776
vt 0.884520 0.338860
vt 0.101748 0.000692
vt 0.981109 0.882776
vt 0.901334 0.338860
vt 0.605640 0.000692
vt 0.970666 0.441041
vt 0.240313 0.840378
vt 0.201419 0.441042
vt 0.987480 0.441041
vt 0.257127 0.840378
vt 0.505970 0.441042
vt 0.884520 0.438531
vt 0.970666 0.000692
vt 0.201419 0.000692
vt 0.901334 0.438531
vt 0.987480 0.000692
vt 0.505970 0.000692
s 0
f 105/249/52 106/252/52 108/258/52 107/255/52
f 107/256/53 108/259/53 112/270/53 111/267/53
f 111/268/54 112/271/54 110/264/54 109/261/54
f 109/262/55 110/265/55 106/253/55 105/250/55
f 107/257/56 111/269/56 109/263/56 105/251/56
f 112/272/57 108/260/57 106/254/57 110/266/57
o Kostka.002
v 1.898622 -1.223563 -0.367544
v 1.898622 -1.126840 -0.367544
v -0.634415 -1.223563 -0.367544
v -0.634415 -1.126840 -0.367544
v 1.898622 -1.223563 -0.940884
v 1.898622 -1.126840 -0.940884
v -0.634415 -1.223563 -0.940884
v -0.634415 -1.126840 -0.940884
vn -0.0000 -0.0000 1.0000
vn -1.0000 -0.0000 -0.0000
vn -0.0000 -0.0000 -1.0000
vn 1.0000 -0.0000 -0.0000
vn -0.0000 -1.0000 -0.0000
vn -0.0000 1.0000 -0.0000
vt 0.982493 0.442426
vt 0.920918 0.438531
vt 0.404914 0.441042
vt 0.999308 0.442426
vt 0.937732 0.438531
vt 0.202803 0.000692
vt 0.982493 0.882775
vt 0.906541 0.754640
vt 0.404914 0.000692
vt 0.999308 0.882775
vt 0.923356 0.754640
vt 0.202803 0.441042
vt 0.952467 0.441041
vt 0.920918 0.338860
vt 0.504585 0.441042
vt 0.969281 0.441041
vt 0.937732 0.338860
vt 0.302474 0.000692
vt 0.906541 0.854311
vt 0.952467 0.000692
vt 0.504585 0.000692
vt 0.923356 0.854311
vt 0.969281 0.000692
vt 0.302474 0.441042
s 0
f 113/273/58 114/276/58 116/282/58 115/279/58
f 115/280/59 116/283/59 120/294/59 119/291/59
f 119/292/60 120/295/60 118/288/60 117/285/60
f 117/286/61 118/289/61 114/277/61 113/274/61
f 115/281/62 119/293/62 117/287/62 113/275/62
f 120/296/63 116/284/63 114/278/63 118/290/63
o Walec.004
v -0.039372 -1.501114 0.516041
v -0.039372 -1.501114 0.416041
v 0.254521 -1.405622 0.516041
v 0.254521 -1.405622 0.416041
v 0.436157 -1.155622 0.516041
v 0.436157 -1.155622 0.416041
v 0.436157 -0.846605 0.516041
v 0.436157 -0.846605 0.416041
v 0.254521 -0.596605 0.516041
v 0.254521 -0.596605 0.416041
v -0.039372 -0.501114 0.516041
v -0.039372 -0.501114 0.416041
v -0.333264 -0.596605 0.516041
v -0.333264 -0.596605 0.416041
v -0.514900 -0.846605 0.516041
v -0.514900 -0.846605 0.416041
v -0.514900 -1.155622 0.516041
v -0.514900 -1.155622 0.416041
v -0.333264 -1.405622 0.516041
v -0.333264 -1.405622 0.416041
v -0.039372 -1.501114 0.875038
v -0.039372 -1.501114 0.775038
v 0.254521 -1.405622 0.875038
v 0.254521 -1.405622 0.775038
v 0.436157 -1.155622 0.875039
v 0.436157 -1.155622 0.775038
v 0.436157 -0.846605 0.875039
v 0.436157 -0.846605 0.775038
v 0.254521 -0.596605 0.875039
v 0.254521 -0.596605 0.775038
v -0.039372 -0.501114 0.875039
v -0.039372 -0.501114 0.775038
v -0.333264 -0.596605 0.875039
v -0.333264 -0.596605 0.775038
v -0.514900 -0.846605 0.875039
v -0.514900 -0.846605 0.775038
v -0.514900 -1.155622 0.875039
v -0.514900 -1.155622 0.775038
v -0.333264 -1.405622 0.875038
v -0.333264 -1.405622 0.775038
v -0.039372 -1.501114 -0.509512
v -0.039372 -1.501114 -0.409512
v 0.254521 -1.405622 -0.509512
v 0.254521 -1.405622 -0.409512
v 0.436157 -1.155622 -0.509512
v 0.436157 -1.155622 -0.409512
v 0.436157 -0.846605 -0.509512
v 0.436157 -0.846605 -0.409512
v 0.254521 -0.596605 -0.509512
v 0.254521 -0.596605 -0.409512
v -0.039372 -0.501114 -0.509512
v -0.039372 -0.501114 -0.409512
v -0.333264 -0.596605 -0.509512
v -0.333264 -0.596605 -0.409512
v -0.514900 -0.846605 -0.509512
v -0.514900 -0.846605 -0.409512
v -0.514900 -1.155622 -0.509512
v -0.514900 -1.155622 -0.409512
v -0.333264 -1.405622 -0.509512
v -0.333264 -1.405622 -0.409512
v -0.039372 -1.501114 -0.868510
v -0.039372 -1.501114 -0.768510
v 0.254521 -1.405622 -0.868510
v 0.254521 -1.405622 -0.768510
v 0.436157 -1.155622 -0.868510
v 0.436157 -1.155622 -0.768510
v 0.436157 -0.846605 -0.868510
v 0.436157 -0.846605 -0.768510
v 0.254521 -0.596605 -0.868510
v 0.254521 -0.596605 -0.768510
v -0.039372 -0.501113 -0.868510
v -0.039372 -0.501113 -0.768510
v -0.333264 -0.596605 -0.868510
v -0.333264 -0.596605 -0.768510
v -0.514900 -0.846605 -0.868510
v -0.514900 -0.846605 -0.768510
v -0.514900 -1.155622 -0.868510
v -0.514900 -1.155622 -0.768510
v -0.333264 -1.405622 -0.868510
v -0.333264 -1.405622 -0.768510
vn 0.3090 -0.9511 -0.0000
vn 0.8090 -0.5878 -0.0000
vn 1.0000 -0.0000 -0.0000
vn 0.8090 0.5878 -0.0000
vn 0.3090 0.9511 -0.0000
vn -0.3090 0.9511 -0.0000
vn -0.8090 0.5878 -0.0000
vn -1.0000 -0.0000 -0.0000
vn -0.0000 -0.0000 -1.0000
vn -0.8090 -0.5878 -0.0000
vn -0.3090 -0.9511 -0.0000
vn -0.0000 -0.0000 1.0000
vt 0.845524 0.858181
vt 0.000692 0.677715
vt 0.202803 0.677714
vt 0.864133 0.858181
vt 0.845524 0.904705
vt 0.824145 0.441042
vt 0.032268 0.634254
vt 0.864133 0.904705
vt 0.805866 0.441042
vt 0.202803 0.731435
vt 0.824145 0.395344
vt 0.083359 0.617653
vt 0.805866 0.395344
vt 0.234379 0.774895
vt 0.824145 0.338860
vt 0.186764 0.853081
vt 0.134450 0.634254
vt 0.805866 0.338860
vt 0.168155 0.853081
vt 0.285470 0.791496
vt 0.186764 0.806558
vt 0.166026 0.677714
vt 0.168155 0.806558
vt 0.336561 0.774895
vt 0.186764 0.749052
vt 0.166026 0.731435
vt 0.168155 0.749052
vt 0.368137 0.731435
vt 0.186764 0.702529
vt 0.702959 0.756002
vt 0.134450 0.774895
vt 0.168155 0.702529
vt 0.721238 0.756002
vt 0.368137 0.677714
vt 0.702959 0.801699
vt 0.083359 0.791496
vt 0.721238 0.801699
vt 0.336561 0.634254
vt 0.702959 0.858184
vt 0.845524 0.754152
vt 0.032268 0.774895
vt 0.721238 0.858184
vt 0.285470 0.617653
vt 0.864133 0.754152
vt 0.845524 0.800676
vt 0.000692 0.731435
vt 0.234379 0.634254
vt 0.864133 0.800676
vt 0.886548 0.858669
vt 0.534856 0.502487
vt 0.536241 0.556208
vt 0.905157 0.858669
vt 0.886548 0.905192
vt 0.843809 0.441042
vt 0.534856 0.556208
vt 0.905157 0.905192
vt 0.825530 0.441042
vt 0.567817 0.599668
vt 0.843809 0.395344
vt 0.503280 0.599668
vt 0.825530 0.395344
vt 0.618908 0.616269
vt 0.843809 0.338860
vt 0.822929 0.905638
vt 0.452189 0.616269
vt 0.825530 0.338860
vt 0.804320 0.905638
vt 0.669999 0.599668
vt 0.822929 0.859115
vt 0.401098 0.599668
vt 0.804320 0.859115
vt 0.701575 0.556208
vt 0.822929 0.801609
vt 0.369522 0.556208
vt 0.804320 0.801609
vt 0.701575 0.502487
vt 0.822929 0.755086
vt 0.845193 0.338860
vt 0.369522 0.502487
vt 0.804320 0.755086
vt 0.863472 0.338860
vt 0.669999 0.459027
vt 0.845193 0.384557
vt 0.401098 0.459027
vt 0.863472 0.384557
vt 0.618908 0.442426
vt 0.845193 0.441042
vt 0.886548 0.754640
vt 0.452189 0.442426
vt 0.863472 0.441042
vt 0.567817 0.459027
vt 0.905157 0.754640
vt 0.886548 0.801163
vt 0.503280 0.459027
vt 0.536241 0.502487
vt 0.905157 0.801163
vt 0.844139 0.858181
vt 0.234379 0.599668
vt 0.638601 0.333161
vt 0.825530 0.858181
vt 0.844139 0.904705
vt 0.722623 0.858184
vt 0.285470 0.616269
vt 0.825530 0.904705
vt 0.740902 0.858184
vt 0.607025 0.289701
vt 0.722623 0.812486
vt 0.336561 0.599668
vt 0.740902 0.812486
vt 0.607025 0.235980
vt 0.722623 0.756002
vt 0.884127 0.754152
vt 0.368137 0.556208
vt 0.740902 0.756002
vt 0.865517 0.754153
vt 0.638601 0.192520
vt 0.884127 0.800676
vt 0.368137 0.502487
vt 0.865517 0.800676
vt 0.689692 0.175919
vt 0.884127 0.858181
vt 0.336561 0.459027
vt 0.865517 0.858181
vt 0.740783 0.192520
vt 0.884127 0.904705
vt 0.804482 0.338860
vt 0.285470 0.442426
vt 0.865517 0.904705
vt 0.786203 0.338860
vt 0.772359 0.235980
vt 0.804482 0.384557
vt 0.234379 0.459027
vt 0.786203 0.384557
vt 0.772359 0.289701
vt 0.804482 0.441042
vt 0.844139 0.754152
vt 0.202803 0.502487
vt 0.786203 0.441042
vt 0.740783 0.333161
vt 0.825530 0.754152
vt 0.844139 0.800676
vt 0.202803 0.556208
vt 0.689692 0.349762
vt 0.825530 0.800676
vt 0.802935 0.859115
vt 0.000692 0.502487
vt 0.740783 0.017293
vt 0.784326 0.859115
vt 0.802935 0.905638
vt 0.742286 0.858184
vt 0.000692 0.556208
vt 0.784326 0.905638
vt 0.760565 0.858184
vt 0.772359 0.060753
vt 0.742286 0.812486
vt 0.032268 0.599668
vt 0.760565 0.812486
vt 0.772359 0.114474
vt 0.742286 0.756002
vt 0.764332 0.905638
vt 0.083359 0.616269
vt 0.760565 0.756002
vt 0.782942 0.905638
vt 0.740783 0.157934
vt 0.764332 0.859115
vt 0.134450 0.599668
vt 0.782942 0.859115
vt 0.689692 0.174535
vt 0.764332 0.801609
vt 0.166026 0.556208
vt 0.782942 0.801609
vt 0.638601 0.157934
vt 0.764332 0.755086
vt 0.883135 0.338860
vt 0.166026 0.502487
vt 0.782942 0.755086
vt 0.864856 0.338860
vt 0.607025 0.114474
vt 0.883135 0.384557
vt 0.134450 0.459027
vt 0.864856 0.384557
vt 0.607025 0.060753
vt 0.883135 0.441042
vt 0.802935 0.755086
vt 0.083359 0.442426
vt 0.864856 0.441042
vt 0.638601 0.017293
vt 0.784326 0.755086
vt 0.802935 0.801609
vt 0.032268 0.459027
vt 0.689692 0.000692
vt 0.784326 0.801609
s 0
f 121/297/64 122/300/64 124/304/64 123/301/64
f 123/302/65 124/305/65 126/309/65 125/307/65
f 125/307/66 126/309/66 128/314/66 127/311/66
f 127/312/67 128/315/67 130/319/67 129/317/67
f 129/317/68 130/319/68 132/323/68 131/321/68
f 131/321/69 132/323/69 134/328/69 133/325/69
f 133/326/70 134/329/70 136/333/70 135/331/70
f 135/331/71 136/333/71 138/338/71 137/335/71
f 124/306/72 122/299/72 140/343/72 138/339/72 136/334/72 134/330/72 132/324/72 130/320/72 128/316/72 126/310/72
f 137/336/73 138/340/73 140/344/73 139/341/73
f 139/341/74 140/344/74 122/300/74 121/297/74
f 121/298/75 123/303/75 125/308/75 127/313/75 129/318/75 131/322/75 133/327/75 135/332/75 137/337/75 139/342/75
f 141/345/64 142/348/64 144/352/64 143/349/64
f 143/350/65 144/353/65 146/357/65 145/355/65
f 145/355/66 146/357/66 148/362/66 147/359/66
f 147/360/67 148/363/67 150/367/67 149/365/67
f 149/365/68 150/367/68 152/371/68 151/369/68
f 151/369/69 152/371/69 154/376/69 153/373/69
f 153/374/70 154/377/70 156/381/70 155/379/70
f 155/379/71 156/381/71 158/386/71 157/383/71
f 144/354/72 142/347/72 160/391/72 158/387/72 156/382/72 154/378/72 152/372/72 150/368/72 148/364/72 146/358/72
f 157/384/73 158/388/73 160/392/73 159/389/73
f 159/389/74 160/392/74 142/348/74 141/345/74
f 141/346/75 143/351/75 145/356/75 147/361/75 149/366/75 151/370/75 153/375/75 155/380/75 157/385/75 159/390/75
f 161/393/64 163/397/64 164/400/64 162/396/64
f 163/398/65 165/403/65 166/405/65 164/401/65
f 165/403/66 167/407/66 168/410/66 166/405/66
f 167/408/67 169/413/67 170/415/67 168/411/67
f 169/413/68 171/417/68 172/419/68 170/415/68
f 171/417/69 173/421/69 174/424/69 172/419/69
f 173/422/70 175/427/70 176/429/70 174/425/70
f 175/427/71 177/431/71 178/434/71 176/429/71
f 164/402/75 166/406/75 168/412/75 170/416/75 172/420/75 174/426/75 176/430/75 178/435/75 180/439/75 162/395/75
f 177/432/73 179/437/73 180/440/73 178/436/73
f 179/437/74 161/393/74 162/396/74 180/440/74
f 161/394/72 179/438/72 177/433/72 175/428/72 173/423/72 171/418/72 169/414/72 167/409/72 165/404/72 163/399/72
f 181/441/64 183/445/64 184/448/64 182/444/64
f 183/446/65 185/451/65 186/453/65 184/449/65
f 185/451/66 187/455/66 188/458/66 186/453/66
f 187/456/67 189/461/67 190/463/67 188/459/67
f 189/461/68 191/465/68 192/467/68 190/463/68
f 191/465/69 193/469/69 194/472/69 192/467/69
f 193/470/70 195/475/70 196/477/70 194/473/70
f 195/475/71 197/479/71 198/482/71 196/477/71
f 184/450/75 186/454/75 188/460/75 190/464/75 192/468/75 194/474/75 196/478/75 198/483/75 200/487/75 182/443/75
f 197/480/73 199/485/73 200/488/73 198/484/73
f 199/485/74 181/441/74 182/444/74 200/488/74
f 181/442/72 199/486/72 197/481/72 195/476/72 193/471/72 191/466/72 189/462/72 187/457/72 185/452/72 183/447/72
o Walec.013
v 0.789157 -0.902470 -0.643615
v 0.789157 -1.119052 -0.643615
v 0.837727 -0.902471 -0.559488
v 0.837727 -1.119052 -0.559488
v 0.934868 -0.902471 -0.559488
v 0.934869 -1.119052 -0.559488
v 0.983439 -0.902470 -0.643615
v 0.983439 -1.119052 -0.643615
v 0.934868 -0.902470 -0.727742
v 0.934869 -1.119052 -0.727742
v 0.837727 -0.902471 -0.727742
v 0.837727 -1.119052 -0.727742
v 0.426361 -0.902471 -0.643615
v 0.426361 -1.119052 -0.643615
v 0.474932 -0.902471 -0.559488
v 0.474932 -1.119052 -0.559488
v 0.572073 -0.902471 -0.559488
v 0.572073 -1.119052 -0.559488
v 0.620643 -0.902471 -0.643615
v 0.620643 -1.119052 -0.643615
v 0.572073 -0.902471 -0.727742
v 0.572073 -1.119052 -0.727742
v 0.474932 -0.902471 -0.727742
v 0.474932 -1.119052 -0.727742
v 0.789157 -0.902470 0.643615
v 0.789157 -1.119052 0.643615
v 0.837727 -0.902471 0.559489
v 0.837727 -1.119052 0.559489
v 0.934868 -0.902471 0.559489
v 0.934868 -1.119052 0.559489
v 0.983439 -0.902470 0.643615
v 0.983439 -1.119052 0.643615
v 0.934868 -0.902470 0.727742
v 0.934868 -1.119052 0.727742
v 0.837727 -0.902471 0.727742
v 0.837727 -1.119052 0.727742
v 0.426361 -0.902471 0.643615
v 0.426361 -1.119052 0.643615
v 0.474932 -0.902471 0.559488
v 0.474932 -1.119052 0.559489
v 0.572073 -0.902471 0.559489
v 0.572073 -1.119052 0.559489
v 0.620643 -0.902471 0.643615
v 0.620643 -1.119052 0.643615
v 0.572073 -0.902471 0.727742
v 0.572073 -1.119052 0.727742
v 0.474932 -0.902471 0.727742
v 0.474932 -1.119052 0.727742
vn -0.8660 -0.0000 0.5000
vn -0.0000 -0.0000 1.0000
vn 0.8660 -0.0000 0.5000
vn 0.8660 -0.0000 -0.5000
vn -0.0000 -1.0000 -0.0000
vn -0.0000 -0.0000 -1.0000
vn -0.8660 -0.0000 -0.5000
vn -0.0000 1.0000 -0.0000
vt 0.127557 0.792880
vt 0.042057 0.838993
vt 0.530814 0.883111
vt 0.127557 0.838993
vt 0.197404 0.862909
vt 0.042057 0.792880
vt 0.117216 0.792880
vt 0.530814 0.899998
vt 0.117216 0.838993
vt 0.182780 0.854466
vt 0.096533 0.792880
vt 0.516189 0.908442
vt 0.096533 0.838993
vt 0.168155 0.862909
vt 0.086192 0.792880
vt 0.000692 0.838993
vt 0.501564 0.899998
vt 0.086192 0.838993
vt 0.000692 0.792880
vt 0.168155 0.879797
vt 0.011034 0.838993
vt 0.501564 0.883111
vt 0.182780 0.888240
vt 0.011034 0.792880
vt 0.031716 0.838993
vt 0.516189 0.874667
vt 0.197404 0.879797
vt 0.031716 0.792880
vt 0.245553 0.838993
vt 0.086192 0.840378
vt 0.763169 0.423442
vt 0.245553 0.792880
vt 0.130826 0.855317
vt 0.086192 0.886491
vt 0.255894 0.838993
vt 0.748544 0.431886
vt 0.255894 0.792880
vt 0.130826 0.872204
vt 0.276577 0.838993
vt 0.733920 0.423442
vt 0.276577 0.792880
vt 0.145450 0.880648
vt 0.286918 0.838993
vt 0.127557 0.840378
vt 0.733920 0.406555
vt 0.286918 0.792880
vt 0.127557 0.886491
vt 0.160075 0.872204
vt 0.117216 0.840378
vt 0.748544 0.398112
vt 0.160075 0.855317
vt 0.117216 0.886491
vt 0.096533 0.840378
vt 0.763169 0.406555
vt 0.145450 0.846873
vt 0.096533 0.886491
vt 0.000692 0.840378
vt 0.244168 0.792880
vt 0.351628 0.880648
vt 0.000692 0.886491
vt 0.500180 0.899998
vt 0.244168 0.838993
vt 0.011034 0.840378
vt 0.366253 0.872204
vt 0.011034 0.886491
vt 0.485555 0.908442
vt 0.031716 0.840378
vt 0.366253 0.855317
vt 0.031716 0.886491
vt 0.470930 0.899998
vt 0.042057 0.840378
vt 0.202803 0.792880
vt 0.351628 0.846873
vt 0.042057 0.886491
vt 0.202803 0.838993
vt 0.470930 0.883111
vt 0.213145 0.792880
vt 0.337003 0.855317
vt 0.485555 0.874667
vt 0.213145 0.838993
vt 0.233827 0.792880
vt 0.337003 0.872204
vt 0.500180 0.883111
vt 0.233827 0.838993
vt 0.084807 0.838993
vt 0.329668 0.792880
vt 0.748218 0.893343
vt 0.084807 0.792880
vt 0.702959 0.884899
vt 0.329668 0.838993
vt 0.074466 0.838993
vt 0.762843 0.884899
vt 0.074466 0.792880
vt 0.702959 0.868012
vt 0.053783 0.838993
vt 0.762843 0.868012
vt 0.053783 0.792880
vt 0.717584 0.859568
vt 0.043442 0.838993
vt 0.288303 0.792880
vt 0.748218 0.859568
vt 0.043442 0.792880
vt 0.288303 0.838993
vt 0.732209 0.868012
vt 0.298644 0.792880
vt 0.733593 0.868012
vt 0.732209 0.884899
vt 0.298644 0.838993
vt 0.319327 0.792880
vt 0.733593 0.884899
vt 0.717584 0.893343
vt 0.319327 0.838993
s 0
f 201/489/76 202/492/76 204/497/76 203/495/76
f 203/495/77 204/497/77 206/501/77 205/499/77
f 205/499/78 206/501/78 208/506/78 207/503/78
f 207/504/79 208/507/79 210/512/79 209/509/79
f 204/498/80 202/493/80 212/515/80 210/511/80 208/508/80 206/502/80
f 209/509/81 210/512/81 212/516/81 211/513/81
f 211/513/82 212/516/82 202/494/82 201/490/82
f 201/491/83 203/496/83 205/500/83 207/505/83 209/510/83 211/514/83
f 213/517/76 214/520/76 216/525/76 215/523/76
f 215/523/77 216/525/77 218/529/77 217/527/77
f 217/527/78 218/529/78 220/534/78 219/531/78
f 219/532/79 220/535/79 222/540/79 221/537/79
f 216/526/80 214/521/80 224/543/80 222/539/80 220/536/80 218/530/80
f 221/537/81 222/540/81 224/544/81 223/541/81
f 223/541/82 224/544/82 214/522/82 213/518/82
f 213/519/83 215/524/83 217/528/83 219/533/83 221/538/83 223/542/83
f 225/545/82 227/551/82 228/553/82 226/548/82
f 227/551/81 229/555/81 230/557/81 228/553/81
f 229/555/79 231/559/79 232/562/79 230/557/79
f 231/560/78 233/565/78 234/568/78 232/563/78
f 228/554/80 230/558/80 232/564/80 234/567/80 236/571/80 226/549/80
f 233/565/77 235/569/77 236/572/77 234/568/77
f 235/569/76 225/546/76 226/550/76 236/572/76
f 225/547/83 235/570/83 233/566/83 231/561/83 229/556/83 227/552/83
f 237/573/82 239/579/82 240/581/82 238/576/82
f 239/579/81 241/583/81 242/585/81 240/581/81
f 241/583/79 243/587/79 244/590/79 242/585/79
f 243/588/78 245/593/78 246/596/78 244/591/78
f 240/582/80 242/586/80 244/592/80 246/595/80 248/599/80 238/577/80
f 245/593/77 247/597/77 248/600/77 246/596/77
f 247/597/76 237/574/76 238/578/76 248/600/76
f 237/575/83 247/598/83 245/594/83 243/589/83 241/584/83 239/580/83
o Cube
v 0.008170 0.889855 -0.751232
v 0.108170 0.889855 -0.651232
v 0.108170 0.789855 -0.751232
v 0.008170 -0.889855 -0.751232
v 0.108170 -0.789855 -0.751232
v 0.108170 -0.889855 -0.651232
v 0.108170 0.889855 -0.637969
v 0.008170 0.889855 -0.537969
v 0.108170 0.789855 -0.537969
v 0.108170 -0.789855 -0.537969
v 0.008170 -0.889855 -0.537969
v 0.108170 -0.889855 -0.637969
v -0.197319 0.789855 -0.751232
v -0.197319 0.889855 -0.651232
v -0.097319 0.889855 -0.751232
v -0.197319 -0.789855 -0.751232
v -0.097319 -0.889855 -0.751232
v -0.197319 -0.889855 -0.651232
v -0.197319 0.789855 -0.537969
v -0.097319 0.889855 -0.537969
v -0.197319 0.889855 -0.637969
v -0.097319 -0.889855 -0.537969
v -0.197319 -0.789855 -0.537969
v -0.197319 -0.889855 -0.637969
v 0.108170 0.789855 0.751232
v 0.108170 0.889855 0.651232
v 0.008170 0.889855 0.751232
v 0.108170 -0.889855 0.651232
v 0.108170 -0.789855 0.751232
v 0.008170 -0.889855 0.751232
v 0.108170 0.789855 0.537969
v 0.008170 0.889855 0.537969
v 0.108170 0.889855 0.637969
v 0.108170 -0.889855 0.637969
v 0.008170 -0.889855 0.537969
v 0.108170 -0.789855 0.537969
v -0.097319 0.889855 0.751232
v -0.197319 0.889855 0.651232
v -0.197319 0.789855 0.751232
v -0.197319 -0.889855 0.651232
v -0.097319 -0.889855 0.751232
v -0.197319 -0.789855 0.751232
v -0.197319 0.889855 0.637969
v -0.097319 0.889855 0.537969
v -0.197319 0.789855 0.537969
v -0.197319 -0.889855 0.637969
v -0.197319 -0.789855 0.537969
v -0.097319 -0.889855 0.537969
vn -0.0000 -1.0000 -0.0000
vn -1.0000 -0.0000 -0.0000
vn -0.0000 -0.0000 1.0000
vn -0.0000 1.0000 -0.0000
vn 1.0000 -0.0000 -0.0000
vn -0.0000 -0.0000 -1.0000
vn 0.5774 0.5774 -0.5774
vn 0.5774 -0.5774 -0.5774
vn 0.5774 0.5774 0.5774
vn 0.5774 -0.5774 0.5774
vn -0.5774 0.5774 -0.5774
vn -0.5774 -0.5774 -0.5774
vn -0.5774 0.5774 0.5774
vn -0.5774 -0.5774 0.5774
vt 0.759596 0.721645
vt 0.000553 0.438304
vt 0.705635 0.551176
vt 0.792525 0.754573
vt 0.032083 0.438304
vt 0.000553 0.469834
vt 0.674696 0.520237
vt 0.900660 0.606219
vt 0.000553 0.999447
vt 0.705635 0.000553
vt 0.000553 0.967917
vt 0.674696 0.031492
vt 0.900660 0.649973
vt 0.032083 0.999447
vt 0.796892 0.754573
vt 0.036265 0.438304
vt 0.547030 0.551176
vt 0.829820 0.721645
vt 0.067795 0.438304
vt 0.577969 0.520237
vt 0.067795 0.469834
vt 0.577969 0.031492
vt 0.067795 0.967917
vt 0.854004 0.652875
vt 0.547030 0.000553
vt 0.067795 0.999447
vt 0.897758 0.652875
vt 0.036265 0.999447
vt 0.135532 0.469548
vt 0.759596 0.653981
vt 0.769211 0.520237
vt 0.104288 0.438304
vt 0.792525 0.653981
vt 0.759596 0.686909
vt 0.738272 0.551176
vt 0.135532 0.963110
vt 0.769211 0.031492
vt 0.877582 0.583141
vt 0.135532 0.994354
vt 0.738272 0.000553
vt 0.833828 0.583141
vt 0.104288 0.994354
vt 0.068901 0.469548
vt 0.483454 0.520237
vt 0.829820 0.653981
vt 0.514393 0.551176
vt 0.829820 0.686909
vt 0.100145 0.438304
vt 0.796892 0.653981
vt 0.830926 0.629797
vt 0.514393 0.000553
vt 0.068901 0.994354
vt 0.483454 0.031492
vt 0.068901 0.963110
vt 0.830926 0.586043
vt 0.100145 0.994354
vt 0.673590 0.520237
vt 0.933180 0.032083
vt 0.796892 0.652875
vt 0.901650 0.000553
vt 0.642651 0.551176
vt 0.829820 0.619946
vt 0.933180 0.000553
vt 0.575502 0.921440
vt 0.901650 0.561696
vt 0.673590 0.031492
vt 0.933180 0.530166
vt 0.642651 0.000553
vt 0.575502 0.877686
vt 0.933180 0.561696
vt 0.770317 0.520237
vt 0.865938 0.032083
vt 0.801256 0.551176
vt 0.759596 0.619946
vt 0.865938 0.000553
vt 0.792525 0.652875
vt 0.897468 0.000553
vt 0.578403 0.924342
vt 0.897468 0.561696
vt 0.622157 0.924342
vt 0.801256 0.000553
vt 0.865938 0.561696
vt 0.770317 0.031492
vt 0.865938 0.530166
vt 0.610014 0.551176
vt 0.829820 0.585211
vt 0.262866 0.438304
vt 0.796892 0.552282
vt 0.579075 0.520237
vt 0.231622 0.469548
vt 0.829820 0.552282
vt 0.642334 0.854608
vt 0.262866 0.994354
vt 0.610014 0.000553
vt 0.598580 0.854608
vt 0.231622 0.994354
vt 0.579075 0.031492
vt 0.231622 0.963110
vt 0.267010 0.438304
vt 0.792525 0.552282
vt 0.833893 0.551176
vt 0.759596 0.585211
vt 0.298254 0.469548
vt 0.864832 0.520237
vt 0.759596 0.552282
vt 0.645235 0.857510
vt 0.267010 0.994354
vt 0.864832 0.031492
vt 0.298254 0.963110
vt 0.645235 0.901264
vt 0.833893 0.000553
vt 0.298254 0.994354
s 0
usemtl Material.001
f 266/641/84 265/638/84 252/608/84 254/613/84 260/627/84 259/624/84 270/650/84 272/655/84
f 272/656/85 271/654/85 267/643/85 269/648/85 262/632/85 261/629/85 264/636/85 266/642/85
f 290/697/86 289/694/86 278/668/86 277/666/86 273/657/86 275/661/86 285/685/86 287/689/86
f 259/625/86 258/622/86 257/620/86 256/617/86 268/646/86 267/644/86 271/653/86 270/651/86
f 250/604/87 249/601/87 263/634/87 262/633/87 269/649/87 268/647/87 256/618/87 255/615/87
f 254/614/88 253/611/88 251/606/88 250/605/88 255/616/88 257/621/88 258/623/88 260/628/88
f 289/695/84 288/692/84 294/706/84 296/710/84 283/680/84 282/678/84 276/664/84 278/669/84
f 295/709/85 294/707/85 288/693/85 290/698/85 287/690/85 286/687/85 291/699/85 293/703/85
f 284/683/89 283/681/89 296/711/89 295/708/89 293/704/89 292/701/89 280/673/89 279/671/89
f 275/662/87 274/659/87 281/676/87 280/674/87 292/702/87 291/700/87 286/688/87 285/686/87
f 277/667/88 276/665/88 282/679/88 284/684/88 279/672/88 281/677/88 274/660/88 273/658/88
f 249/602/90 250/605/90 251/606/90
f 252/609/91 253/611/91 254/614/91
f 255/616/92 256/619/92 257/621/92
f 258/623/93 259/626/93 260/628/93
f 261/630/94 262/633/94 263/634/94
f 264/636/95 265/639/95 266/642/95
f 267/645/96 268/647/96 269/649/96
f 270/652/97 271/654/97 272/656/97
f 273/658/92 274/660/92 275/663/92
f 276/665/93 277/667/93 278/670/93
f 279/672/90 280/675/90 281/677/90
f 282/679/91 283/682/91 284/684/91
f 285/686/96 286/688/96 287/691/96
f 288/693/97 289/696/97 290/698/97
f 291/700/94 292/702/94 293/705/94
f 294/707/95 295/709/95 296/712/95
f 265/640/89 264/637/89 261/631/89 263/635/89 249/603/89 251/607/89 253/612/89 252/610/89
o Walec
v -0.037936 0.577207 0.763173
v -0.037936 0.577207 -0.763173
v 0.065987 0.637207 0.763173
v 0.065987 0.637207 -0.763173
v 0.065987 0.757207 0.763173
v 0.065987 0.757207 -0.763173
v -0.037936 0.817207 0.763173
v -0.037936 0.817207 -0.763173
v -0.141859 0.757207 0.763173
v -0.141859 0.757207 -0.763173
v -0.141859 0.637207 0.763173
v -0.141859 0.637207 -0.763173
vn 0.5000 -0.8660 -0.0000
vn 1.0000 -0.0000 -0.0000
vn 0.5000 0.8660 -0.0000
vn -0.5000 0.8660 -0.0000
vn -0.0000 -0.0000 -1.0000
vn -1.0000 -0.0000 -0.0000
vn -0.5000 -0.8660 -0.0000
vn -0.0000 -0.0000 1.0000
vt 0.482348 0.000553
vt 0.390301 0.578921
vt 0.364771 0.900916
vt 0.482348 0.578921
vt 0.890419 0.883941
vt 0.390301 0.000553
vt 0.459613 0.000553
vt 0.396923 0.882352
vt 0.459613 0.578921
vt 0.890419 0.921068
vt 0.414142 0.000553
vt 0.429076 0.900916
vt 0.414142 0.578921
vt 0.922571 0.939631
vt 0.391407 0.000553
vt 0.299359 0.578921
vt 0.429076 0.938042
vt 0.391407 0.578921
vt 0.299359 0.000553
vt 0.954724 0.921068
vt 0.322095 0.578921
vt 0.396923 0.956606
vt 0.954724 0.883941
vt 0.322095 0.000553
vt 0.367566 0.578921
vt 0.364771 0.938042
vt 0.922571 0.865378
vt 0.367566 0.000553
s 0
usemtl Material.001
f 297/713/98 298/716/98 300/721/98 299/719/98
f 299/719/99 300/721/99 302/725/99 301/723/99
f 301/723/100 302/725/100 304/730/100 303/727/100
f 303/728/101 304/731/101 306/736/101 305/733/101
f 300/722/102 298/717/102 308/739/102 306/735/102 304/732/102 302/726/102
f 305/733/103 306/736/103 308/740/103 307/737/103
f 307/737/104 308/740/104 298/718/104 297/714/104
f 297/715/105 299/720/105 301/724/105 303/729/105 305/734/105 307/738/105
o Walec.001
v -0.037936 1.289802 0.120000
v -0.037936 0.677415 0.120000
v 0.065987 1.289802 0.060000
v 0.065987 0.677415 0.060000
v 0.065987 1.289802 -0.060000
v 0.065987 0.677415 -0.060000
v -0.037936 1.289802 -0.120000
v -0.037936 0.677415 -0.120000
v -0.141859 1.289802 -0.060000
v -0.141859 0.677415 -0.060000
v -0.141859 1.289802 0.060000
v -0.141859 0.677415 0.060000
vn 0.5000 -0.0000 0.8660
vn 1.0000 -0.0000 -0.0000
vn 0.5000 -0.0000 -0.8660
vn -0.5000 -0.0000 -0.8660
vn -0.0000 -1.0000 -0.0000
vn -1.0000 -0.0000 -0.0000
vn -0.5000 -0.0000 0.8660
vn -0.0000 1.0000 -0.0000
vt 0.506190 0.552282
vt 0.168791 0.960643
vt 0.889313 0.921068
vt 0.506190 0.784330
vt 0.483454 0.552282
vt 0.136638 0.670352
vt 0.136638 0.942080
vt 0.483454 0.784330
vt 0.136638 0.438304
vt 0.889313 0.883941
vt 0.159374 0.670352
vt 0.136638 0.904953
vt 0.159374 0.438304
vt 0.857160 0.865378
vt 0.204844 0.670352
vt 0.168791 0.886390
vt 0.204844 0.438304
vt 0.825007 0.883941
vt 0.227580 0.670352
vt 0.574396 0.552282
vt 0.200944 0.904953
vt 0.227580 0.438304
vt 0.825007 0.921068
vt 0.574396 0.784330
vt 0.551660 0.552282
vt 0.200944 0.942080
vt 0.857160 0.939631
vt 0.551660 0.784330
s 0
usemtl Material.001
f 309/741/106 310/744/106 312/748/106 311/745/106
f 311/746/107 312/749/107 314/753/107 313/751/107
f 313/751/108 314/753/108 316/757/108 315/755/108
f 315/755/109 316/757/109 318/762/109 317/759/109
f 312/750/110 310/743/110 320/767/110 318/763/110 316/758/110 314/754/110
f 317/760/111 318/764/111 320/768/111 319/765/111
f 319/765/112 320/768/112 310/744/112 309/741/112
f 309/742/113 311/747/113 313/752/113 315/756/113 317/761/113 319/766/113
o Walec.002
v -0.037936 2.147755 0.168279
v -0.037936 1.006248 0.127107
v 0.107798 2.147755 0.084140
v 0.072142 1.006248 0.063554
v 0.107798 2.147755 -0.084140
v 0.072142 1.006248 -0.063554
v -0.037936 2.147755 -0.168279
v -0.037936 1.006248 -0.127108
v -0.183670 2.147755 -0.084140
v -0.148015 1.006248 -0.063554
v -0.183670 2.147755 0.084140
v -0.148015 1.006248 0.063554
v -0.037936 1.577001 0.172092
v 0.111099 1.577001 0.086046
v 0.111099 1.577001 -0.086046
v -0.037936 1.577001 -0.172092
v -0.186972 1.577001 -0.086046
v -0.186972 1.577001 0.086046
v 0.111099 1.829589 0.086046
v 0.111099 1.829589 -0.086046
v -0.037936 1.829589 -0.172091
v -0.186972 1.829589 -0.086046
v -0.186972 1.829589 0.086046
v -0.037936 1.829589 0.172092
v -0.037936 1.324414 0.172091
v 0.111099 1.324414 0.086046
v 0.111099 1.324414 -0.086046
v -0.037936 1.324414 -0.172092
v -0.186972 1.324414 -0.086046
v -0.186972 1.324414 0.086046
v -0.037936 1.146138 0.140168
v 0.083452 1.146138 0.070084
v 0.083452 1.146138 -0.070084
v -0.037936 1.146138 -0.140168
v -0.159325 1.146138 -0.070084
v -0.159325 1.146138 0.070084
v 0.111099 1.450708 0.086046
v 0.111099 1.450708 -0.086046
v -0.037936 1.450708 -0.172092
v -0.186972 1.450708 -0.086046
v -0.186972 1.450708 0.086046
v -0.037936 1.450708 0.172092
v -0.037936 1.703295 0.172092
v 0.111099 1.703295 0.086046
v 0.111099 1.703295 -0.086046
v -0.037936 1.703295 -0.172092
v -0.186972 1.703295 -0.086046
v -0.186972 1.703295 0.086046
v 0.130446 2.005067 0.097216
v 0.130446 2.005067 -0.097216
v -0.037936 2.005067 -0.194431
v -0.206319 2.005067 -0.097216
v -0.206319 2.005067 0.097216
v -0.037936 2.005067 0.194431
v -0.037936 1.076193 0.167299
v 0.106949 1.076193 0.083650
v 0.106949 1.076193 -0.083650
v -0.037936 1.076193 -0.167300
v -0.182822 1.076193 -0.083650
v -0.182822 1.076193 0.083650
vn 0.4476 -0.4455 0.7753
vn 0.8953 -0.4455 -0.0000
vn 0.4476 -0.4455 -0.7753
vn -0.4476 -0.4455 -0.7753
vn -0.0000 -1.0000 -0.0000
vn -0.8953 -0.4455 -0.0000
vn -0.4476 -0.4455 0.7753
vn -0.0000 1.0000 -0.0000
vn -0.5000 -0.0000 0.8660
vn -1.0000 -0.0000 -0.0000
vn -0.5000 -0.0000 -0.8660
vn 0.5000 -0.0000 -0.8660
vn 1.0000 -0.0000 -0.0000
vn 0.5000 -0.0000 0.8660
vn 0.4970 -0.1096 0.8608
vn 0.9940 -0.1096 -0.0000
vn 0.4970 -0.1096 -0.8608
vn -0.4970 -0.1096 -0.8608
vn -0.9940 -0.1096 -0.0000
vn -0.4970 -0.1096 0.8608
vn -0.4941 -0.1532 0.8558
vn -0.9882 -0.1532 -0.0000
vn -0.4941 -0.1532 -0.8558
vn 0.4941 -0.1532 -0.8558
vn 0.9882 -0.1532 -0.0000
vn 0.4941 -0.1532 0.8558
vn -0.4938 0.1568 0.8553
vn -0.9876 0.1568 -0.0000
vn -0.4938 0.1568 -0.8553
vn 0.4938 0.1568 -0.8553
vn 0.9876 0.1568 -0.0000
vn 0.4938 0.1568 0.8553
vn -0.4740 0.3184 0.8209
vn -0.9479 0.3184 -0.0000
vn -0.4740 0.3184 -0.8209
vn 0.4740 0.3184 -0.8209
vn 0.9479 0.3184 -0.0000
vn 0.4740 0.3184 0.8209
vt 0.226815 0.697489
vt 0.159930 0.002023
vt 0.138877 0.002023
vt 0.123175 0.437198
vt 0.899040 0.712969
vt 0.175631 0.437198
vt 0.226815 0.749553
vt 0.106789 0.000553
vt 0.098938 0.436088
vt 0.899040 0.673643
vt 0.181727 0.775585
vt 0.042614 0.000553
vt 0.050465 0.436088
vt 0.864983 0.653981
vt 0.136638 0.749553
vt 0.288280 0.002023
vt 0.010526 0.002023
vt 0.026227 0.437198
vt 0.272579 0.437198
vt 0.830926 0.673643
vt 0.136638 0.697489
vt 0.256193 0.000553
vt 0.830926 0.712969
vt 0.248342 0.436088
vt 0.181727 0.671457
vt 0.192017 0.000553
vt 0.864983 0.732632
vt 0.199868 0.436088
vt 0.140331 0.219610
vt 0.158476 0.219610
vt 0.107516 0.218107
vt 0.041887 0.218107
vt 0.009072 0.219610
vt 0.289734 0.219610
vt 0.256919 0.218107
vt 0.191290 0.218107
vt 0.107516 0.121814
vt 0.041887 0.121814
vt 0.009072 0.123317
vt 0.289734 0.123317
vt 0.256919 0.121814
vt 0.191290 0.121814
vt 0.140331 0.123317
vt 0.158476 0.123317
vt 0.158476 0.315904
vt 0.140331 0.315904
vt 0.107516 0.314401
vt 0.041887 0.314401
vt 0.289734 0.315904
vt 0.009072 0.315904
vt 0.256919 0.314401
vt 0.191290 0.314401
vt 0.170650 0.383868
vt 0.128156 0.383868
vt 0.101429 0.382644
vt 0.047974 0.382644
vt 0.277559 0.383868
vt 0.021247 0.383868
vt 0.250832 0.382643
vt 0.197377 0.382643
vt 0.107516 0.266254
vt 0.041887 0.266254
vt 0.009072 0.267757
vt 0.289734 0.267757
vt 0.256919 0.266254
vt 0.191290 0.266254
vt 0.140331 0.267757
vt 0.158476 0.267757
vt 0.140331 0.171464
vt 0.158476 0.171464
vt 0.107516 0.169960
vt 0.041887 0.169960
vt 0.009072 0.171464
vt 0.289734 0.171464
vt 0.256919 0.169960
vt 0.191290 0.169960
vt 0.111776 0.054721
vt 0.037627 0.054721
vt 0.298254 0.056420
vt 0.000553 0.056420
vt 0.261179 0.054721
vt 0.187030 0.054721
vt 0.149956 0.056420
vt 0.148850 0.056420
vt 0.160303 0.410533
vt 0.138503 0.410533
vt 0.106602 0.409072
vt 0.042801 0.409072
vt 0.287906 0.410533
vt 0.010900 0.410533
vt 0.256006 0.409072
vt 0.192204 0.409072
s 0
usemtl Material.001
f 375/854/114 322/772/114 324/777/114 376/855/114
f 376/855/115 324/777/115 326/781/115 377/856/115
f 377/856/116 326/781/116 328/786/116 378/858/116
f 378/857/117 328/787/117 330/792/117 379/859/117
f 324/778/118 322/773/118 332/795/118 330/791/118 328/788/118 326/782/118
f 379/859/119 330/792/119 332/796/119 380/860/119
f 380/860/120 332/796/120 322/774/120 375/853/120
f 321/769/121 323/775/121 325/779/121 327/783/121 329/789/121 331/793/121
f 368/844/122 338/804/122 333/798/122 363/838/122
f 367/843/123 337/803/123 338/804/123 368/844/123
f 366/842/124 336/802/124 337/803/124 367/843/124
f 365/840/125 335/800/125 336/801/125 366/841/125
f 364/839/126 334/799/126 335/800/126 365/840/126
f 363/837/127 333/797/127 334/799/127 364/839/127
f 374/852/128 344/811/128 339/805/128 369/845/128
f 369/845/129 339/805/129 340/806/129 370/846/129
f 370/846/130 340/806/130 341/807/130 371/848/130
f 371/847/131 341/808/131 342/809/131 372/849/131
f 372/849/132 342/809/132 343/810/132 373/850/132
f 373/850/133 343/810/133 344/812/133 374/851/133
f 361/834/122 350/820/122 345/813/122 362/836/122
f 360/833/123 349/819/123 350/820/123 361/834/123
f 359/832/124 348/817/124 349/819/124 360/833/124
f 358/830/125 347/816/125 348/818/125 359/831/125
f 357/829/126 346/815/126 347/816/126 358/830/126
f 362/835/127 345/814/127 346/815/127 357/829/127
f 350/820/134 356/828/134 351/821/134 345/813/134
f 349/819/135 355/827/135 356/828/135 350/820/135
f 348/817/136 354/825/136 355/827/136 349/819/136
f 347/816/137 353/824/137 354/826/137 348/818/137
f 346/815/138 352/823/138 353/824/138 347/816/138
f 345/814/139 351/822/139 352/823/139 346/815/139
f 333/797/127 362/835/127 357/829/127 334/799/127
f 334/799/126 357/829/126 358/830/126 335/800/126
f 335/800/125 358/830/125 359/831/125 336/801/125
f 336/802/124 359/832/124 360/833/124 337/803/124
f 337/803/123 360/833/123 361/834/123 338/804/123
f 338/804/122 361/834/122 362/836/122 333/798/122
f 344/811/127 363/837/127 364/839/127 339/805/127
f 339/805/126 364/839/126 365/840/126 340/806/126
f 340/806/125 365/840/125 366/841/125 341/807/125
f 341/808/124 366/842/124 367/843/124 342/809/124
f 342/809/123 367/843/123 368/844/123 343/810/123
f 343/810/122 368/844/122 363/838/122 344/812/122
f 331/794/140 373/850/140 374/851/140 321/770/140
f 329/790/141 372/849/141 373/850/141 331/794/141
f 327/784/142 371/847/142 372/849/142 329/790/142
f 325/780/143 370/846/143 371/848/143 327/785/143
f 323/776/144 369/845/144 370/846/144 325/780/144
f 321/771/145 374/852/145 369/845/145 323/776/145
f 356/828/146 380/860/146 375/853/146 351/821/146
f 355/827/147 379/859/147 380/860/147 356/828/147
f 354/825/148 378/857/148 379/859/148 355/827/148
f 353/824/149 377/856/149 378/858/149 354/826/149
f 352/823/150 376/855/150 377/856/150 353/824/150
f 351/822/151 375/854/151 376/855/151 352/823/151
o Walec.003
v -0.037936 -0.855229 -0.390897
v -0.037936 -0.855229 -0.896333
v 0.065987 -0.795229 -0.390897
v 0.065987 -0.795229 -0.896333
v 0.065987 -0.675229 -0.390897
v 0.065987 -0.675229 -0.896333
v -0.037936 -0.615229 -0.390897
v -0.037936 -0.615229 -0.896333
v -0.141859 -0.675229 -0.390897
v -0.141859 -0.675229 -0.896333
v -0.141859 -0.795229 -0.390897
v -0.141859 -0.795229 -0.896333
v -0.006102 0.090101 -0.643615
v 0.210479 0.090101 -0.643615
v -0.006102 0.138672 -0.559488
v 0.210479 0.138672 -0.559488
v -0.006102 0.235813 -0.559488
v 0.210479 0.235813 -0.559488
v -0.006102 0.284384 -0.643615
v 0.210479 0.284384 -0.643615
v -0.006102 0.235813 -0.727742
v 0.210479 0.235813 -0.727742
v -0.006102 0.138672 -0.727742
v 0.210479 0.138672 -0.727742
v -0.006102 -0.272694 -0.643615
v 0.210479 -0.272694 -0.643615
v -0.006102 -0.224124 -0.559488
v 0.210479 -0.224124 -0.559488
v -0.006102 -0.126983 -0.559488
v 0.210479 -0.126983 -0.559488
v -0.006102 -0.078412 -0.643615
v 0.210479 -0.078412 -0.643615
v -0.006102 -0.126983 -0.727742
v 0.210479 -0.126983 -0.727742
v -0.006102 -0.224124 -0.727742
v 0.210479 -0.224124 -0.727742
v -0.037936 -0.855229 0.390897
v -0.037936 -0.855229 0.896333
v 0.065987 -0.795229 0.390897
v 0.065987 -0.795229 0.896333
v 0.065987 -0.675229 0.390897
v 0.065987 -0.675229 0.896333
v -0.037936 -0.615229 0.390897
v -0.037936 -0.615229 0.896333
v -0.141859 -0.675229 0.390897
v -0.141859 -0.675229 0.896333
v -0.141859 -0.795229 0.390897
v -0.141859 -0.795229 0.896333
v -0.006102 0.090101 0.643615
v 0.210479 0.090101 0.643615
v -0.006102 0.138672 0.559489
v 0.210479 0.138672 0.559489
v -0.006102 0.235813 0.559489
v 0.210479 0.235813 0.559489
v -0.006102 0.284383 0.643615
v 0.210479 0.284384 0.643615
v -0.006102 0.235813 0.727742
v 0.210479 0.235813 0.727742
v -0.006102 0.138672 0.727742
v 0.210479 0.138672 0.727742
v -0.006102 -0.272694 0.643615
v 0.210479 -0.272694 0.643615
v -0.006102 -0.224124 0.559488
v 0.210479 -0.224124 0.559489
v -0.006102 -0.126983 0.559489
v 0.210479 -0.126983 0.559489
v -0.006102 -0.078412 0.643615
v 0.210479 -0.078412 0.643615
v -0.006102 -0.126983 0.727742
v 0.210479 -0.126983 0.727742
v -0.006102 -0.224124 0.727742
v 0.210479 -0.224124 0.727742
vn 0.5000 -0.8660 -0.0000
vn 1.0000 -0.0000 -0.0000
vn 0.5000 0.8660 -0.0000
vn -0.5000 0.8660 -0.0000
vn -0.0000 -0.0000 -1.0000
vn -1.0000 -0.0000 -0.0000
vn -0.5000 -0.8660 -0.0000
vn -0.0000 -0.0000 1.0000
vn -0.0000 -0.8660 0.5000
vn -0.0000 0.8660 0.5000
vn -0.0000 0.8660 -0.5000
vn -0.0000 -0.8660 -0.5000
vt 0.643708 0.743804
vt 0.890159 0.811369
vt 0.646341 0.910298
vt 0.643708 0.552282
vt 0.666443 0.743804
vt 0.667549 0.743804
vt 0.890159 0.774242
vt 0.666443 0.552282
vt 0.667549 0.552282
vt 0.678494 0.928862
vt 0.690284 0.743804
vt 0.922311 0.755679
vt 0.690284 0.552282
vt 0.710647 0.910298
vt 0.735755 0.743804
vt 0.954464 0.774242
vt 0.735755 0.552282
vt 0.710647 0.873172
vt 0.758490 0.743804
vt 0.575502 0.743804
vt 0.954464 0.811369
vt 0.758490 0.552282
vt 0.678494 0.854608
vt 0.575502 0.552282
vt 0.598237 0.743804
vt 0.922311 0.829932
vt 0.646341 0.873172
vt 0.598237 0.552282
vt 0.856965 0.792731
vt 0.331447 0.881247
vt 0.856965 0.864272
vt 0.741807 0.854608
vt 0.824878 0.783468
vt 0.824878 0.855009
vt 0.741807 0.921616
vt 0.363535 0.871984
vt 0.711752 0.854608
vt 0.363535 0.781917
vt 0.824878 0.764942
vt 0.711752 0.921616
vt 0.363535 0.853458
vt 0.331447 0.772654
vt 0.856965 0.755679
vt 0.331447 0.844195
vt 0.299359 0.781917
vt 0.931307 0.720989
vt 0.889053 0.764942
vt 0.299359 0.853458
vt 0.931307 0.653981
vt 0.961361 0.720989
vt 0.889053 0.783468
vt 0.299359 0.871984
vt 0.961361 0.653981
vt 0.889053 0.855009
vt 0.168726 0.813743
vt 0.791684 0.864272
vt 0.168726 0.885284
vt 0.900146 0.720989
vt 0.136638 0.804480
vt 0.136638 0.876021
vt 0.900146 0.653981
vt 0.823772 0.855009
vt 0.930201 0.720989
vt 0.823772 0.764942
vt 0.136638 0.785954
vt 0.930201 0.653981
vt 0.823772 0.836483
vt 0.791684 0.755679
vt 0.168726 0.776691
vt 0.791684 0.827220
vt 0.759596 0.764942
vt 0.931820 0.583141
vt 0.200814 0.785954
vt 0.759596 0.836483
vt 0.931820 0.650149
vt 0.901766 0.583141
vt 0.200814 0.804480
vt 0.759596 0.855009
vt 0.901766 0.650149
vt 0.200814 0.876021
vt 0.459613 0.580026
vt 0.299359 0.900916
vt 0.823902 0.921068
vt 0.459613 0.771548
vt 0.482348 0.580026
vt 0.390301 0.771548
vt 0.299359 0.938042
vt 0.482348 0.771548
vt 0.390301 0.580027
vt 0.791749 0.939631
vt 0.367566 0.771548
vt 0.331512 0.956606
vt 0.367566 0.580027
vt 0.759596 0.921068
vt 0.322095 0.771548
vt 0.363665 0.938042
vt 0.322095 0.580026
vt 0.759596 0.883941
vt 0.299359 0.771548
vt 0.391407 0.580026
vt 0.363665 0.900916
vt 0.299359 0.580026
vt 0.791749 0.865378
vt 0.391407 0.771548
vt 0.414142 0.580026
vt 0.331512 0.882352
vt 0.823902 0.883941
vt 0.414142 0.771548
vt 0.672871 0.781961
vt 0.607589 0.853502
vt 0.672871 0.853502
vt 0.736119 0.811917
vt 0.704958 0.772698
vt 0.704958 0.844239
vt 0.736119 0.744909
vt 0.575502 0.844239
vt 0.706064 0.811917
vt 0.575502 0.754172
vt 0.704958 0.754172
vt 0.706064 0.744909
vt 0.575502 0.825714
vt 0.607589 0.744909
vt 0.672871 0.744909
vt 0.607589 0.816451
vt 0.639677 0.754172
vt 0.513509 0.962142
vt 0.640783 0.754172
vt 0.639677 0.825714
vt 0.513509 0.895134
vt 0.483454 0.962142
vt 0.640783 0.772698
vt 0.639677 0.844239
vt 0.483454 0.895134
vt 0.640783 0.844239
vt 0.515542 0.822487
vt 0.396728 0.881247
vt 0.515542 0.894028
vt 0.430182 0.882353
vt 0.547630 0.813224
vt 0.547630 0.884766
vt 0.430182 0.949360
vt 0.364641 0.871984
vt 0.460236 0.882353
vt 0.364641 0.781917
vt 0.547630 0.794699
vt 0.460236 0.949360
vt 0.364641 0.853458
vt 0.396728 0.772654
vt 0.515542 0.785436
vt 0.396728 0.844195
vt 0.428816 0.781917
vt 0.459976 0.839662
vt 0.483454 0.794699
vt 0.428816 0.853458
vt 0.459976 0.772654
vt 0.429922 0.839662
vt 0.483454 0.813224
vt 0.428816 0.871984
vt 0.429922 0.772654
vt 0.483454 0.884766
s 0
usemtl Material.001
f 381/861/152 382/864/152 384/868/152 383/865/152
f 383/866/153 384/869/153 386/873/153 385/871/153
f 385/871/154 386/873/154 388/877/154 387/875/154
f 387/875/155 388/877/155 390/882/155 389/879/155
f 384/870/156 382/863/156 392/887/156 390/883/156 388/878/156 386/874/156
f 389/880/157 390/884/157 392/888/157 391/885/157
f 391/885/158 392/888/158 382/864/158 381/861/158
f 381/862/159 383/867/159 385/872/159 387/876/159 389/881/159 391/886/159
f 393/889/160 394/891/160 396/894/160 395/893/160
f 395/892/159 396/895/159 398/900/159 397/897/159
f 397/898/161 398/901/161 400/904/161 399/902/161
f 399/902/162 400/904/162 402/908/162 401/905/162
f 396/896/153 394/890/153 404/912/153 402/908/153 400/904/153 398/901/153
f 401/906/156 402/909/156 404/913/156 403/910/156
f 403/911/163 404/914/163 394/891/163 393/889/163
f 393/889/157 395/893/157 397/899/157 399/903/157 401/907/157 403/911/157
f 405/915/160 406/917/160 408/920/160 407/919/160
f 407/918/159 408/921/159 410/926/159 409/923/159
f 409/924/161 410/927/161 412/930/161 411/928/161
f 411/928/162 412/930/162 414/934/162 413/931/162
f 408/922/153 406/916/153 416/938/153 414/934/153 412/930/153 410/927/153
f 413/932/156 414/935/156 416/939/156 415/936/156
f 415/937/163 416/940/163 406/917/163 405/915/163
f 405/915/157 407/919/157 409/925/157 411/929/157 413/933/157 415/937/157
f 417/941/152 419/945/152 420/948/152 418/944/152
f 419/946/153 421/951/153 422/953/153 420/949/153
f 421/951/154 423/955/154 424/957/154 422/953/154
f 423/955/155 425/959/155 426/962/155 424/957/155
f 420/950/159 422/954/159 424/958/159 426/963/159 428/967/159 418/943/159
f 425/960/157 427/965/157 428/968/157 426/964/157
f 427/965/158 417/941/158 418/944/158 428/968/158
f 417/942/156 427/966/156 425/961/156 423/956/156 421/952/156 419/947/156
f 429/969/163 431/973/163 432/974/163 430/971/163
f 431/972/156 433/977/156 434/980/156 432/975/156
f 433/978/162 435/982/162 436/984/162 434/981/162
f 435/982/161 437/985/161 438/988/161 436/984/161
f 432/976/153 434/981/153 436/984/153 438/988/153 440/992/153 430/970/153
f 437/986/159 439/990/159 440/993/159 438/989/159
f 439/991/160 429/969/160 430/971/160 440/994/160
f 429/969/157 439/991/157 437/987/157 435/983/157 433/979/157 431/973/157
f 441/995/163 443/999/163 444/1000/163 442/997/163
f 443/998/156 445/1003/156 446/1006/156 444/1001/156
f 445/1004/162 447/1008/162 448/1010/162 446/1007/162
f 447/1008/161 449/1011/161 450/1014/161 448/1010/161
f 444/1002/153 446/1007/153 448/1010/153 450/1014/153 452/1018/153 442/996/153
f 449/1012/159 451/1016/159 452/1019/159 450/1015/159
f 451/1017/160 441/995/160 442/997/160 452/1020/160
f 441/995/157 451/1017/157 449/1013/157 447/1009/157 445/1005/157 443/999/157
