# Blender 5.1.0
# www.blender.org
o Sphere
v -0.021048 0.788185 0.155658
v -0.101712 0.857680 -0.032747
v -0.126785 0.864802 -0.223411
v 0.204602 0.749067 0.198380
v 0.121737 0.778838 0.026439
v 0.078771 0.768136 -0.154870
v 0.453209 0.699924 0.177578
v 0.401944 0.717596 -0.001918
v 0.330076 0.695937 -0.174524
v 0.645963 0.718572 0.101219
v 0.600804 0.724200 -0.131102
v 0.519616 0.661966 -0.294015
v 0.790629 0.653234 0.088850
v 0.770912 0.644292 -0.164709
v 0.706048 0.551128 -0.325847
v 0.854044 0.511833 0.194206
v 0.875201 0.495801 -0.011840
v 0.845214 0.390959 -0.178800
v 0.906127 0.273431 0.255903
v 0.923880 0.281018 0.105056
v 0.906127 0.202367 -0.080022
v 0.961940 0.018556 0.211734
v 0.980785 0.028447 0.047002
v 0.961940 0.006466 -0.151924
v -0.926410 -0.018272 0.171494
v -0.971547 0.008730 -0.015744
v -0.969869 0.020183 -0.204861
v -0.839470 0.102066 0.166128
v -0.927083 0.161560 0.002924
v -0.957509 0.197558 -0.187042
v -0.737249 0.184164 0.182504
v -0.853849 0.259617 0.047316
v -0.906115 0.309626 -0.144554
v -0.576364 0.239289 0.156787
v -0.716556 0.310767 0.049692
v -0.792352 0.375186 -0.124519
v -0.423126 0.355164 0.150445
v -0.572266 0.400412 0.045850
v -0.667683 0.468661 -0.113766
v -0.300151 0.490065 0.174597
v -0.429868 0.524376 0.038607
v -0.498675 0.568726 -0.143387
v -0.174617 0.659681 0.164095
v -0.277694 0.684441 0.008536
v -0.321892 0.706747 -0.181254
vn 0.2147 0.9622 0.1676
vn 0.3981 0.9137 -0.0816
vn 0.2266 0.9605 -0.1613
vn 0.2087 0.9766 0.0522
vn -0.0309 0.9975 0.0637
vn -0.0676 0.9747 -0.2129
vn 0.3250 0.7873 -0.5240
vn 0.4108 0.9097 -0.0611
vn 0.8743 0.4848 -0.0236
vn 0.8655 0.2771 -0.4174
vn 0.9624 0.2530 0.0989
vn 0.9662 0.1505 -0.2095
vn 0.9737 0.1914 0.1235
vn 0.9443 0.2851 -0.1647
vn -0.8303 0.3795 0.4082
vn -0.9828 0.1587 0.0944
vn -0.6498 0.4190 0.6342
vn -0.8721 0.4017 0.2794
vn -0.4154 0.8167 0.4006
vn -0.2066 0.7241 0.6580
vn -0.3454 0.5381 0.7688
vn -0.4876 0.6963 0.5268
vn -0.4991 0.4639 0.7319
vn -0.4768 0.7407 0.4734
vn -0.5854 0.5647 0.5818
vn -0.6010 0.7348 0.3144
vn -0.5514 0.6815 0.4813
vn -0.6338 0.7537 0.1737
vt 0.500000 0.499709
vt 0.500000 0.017712
vt 0.428579 0.017712
vt 0.428579 0.499709
vt 0.500000 0.981706
vt 0.428579 0.981706
vt 0.357158 0.499709
vt 0.357158 0.981706
vt 0.357158 0.017712
vt 0.285737 0.017712
vt 0.285737 0.499709
vt 0.285737 0.981706
vt 0.214316 0.499709
vt 0.214316 0.981706
vt 0.214316 0.017712
vt 0.142895 0.017712
vt 0.142895 0.499709
vt 0.142895 0.981706
vt 0.071474 0.017712
vt 0.071474 0.499709
vt 0.071474 0.981706
vt 0.000053 0.017712
vt 0.000053 0.499709
vt 0.000053 0.981706
vt 0.999946 0.499709
vt 0.999946 0.017712
vt 0.928526 0.017712
vt 0.928525 0.499709
vt 0.999946 0.981706
vt 0.928526 0.981706
vt 0.857105 0.017712
vt 0.857105 0.499709
vt 0.857105 0.981706
vt 0.785684 0.499709
vt 0.785684 0.981706
vt 0.785684 0.017712
vt 0.714263 0.017712
vt 0.714263 0.499709
vt 0.714263 0.981706
vt 0.642842 0.017712
vt 0.642842 0.499709
vt 0.642842 0.981706
vt 0.571421 0.017712
vt 0.571421 0.499709
vt 0.571421 0.981706
s 0
f 2/1/1 1/2/1 4/3/1 5/4/1
f 3/5/2 2/1/2 5/4/2 6/6/2
f 6/6/3 5/4/3 8/7/3 9/8/3
f 5/4/4 4/3/4 7/9/4 8/7/4
f 8/7/5 7/9/5 10/10/5 11/11/5
f 9/8/6 8/7/6 11/11/6 12/12/6
f 12/12/7 11/11/7 14/13/7 15/14/7
f 11/11/8 10/10/8 13/15/8 14/13/8
f 14/13/9 13/15/9 16/16/9 17/17/9
f 15/14/10 14/13/10 17/17/10 18/18/10
f 17/17/11 16/16/11 19/19/11 20/20/11
f 18/18/12 17/17/12 20/20/12 21/21/12
f 20/20/13 19/19/13 22/22/13 23/23/13
f 21/21/14 20/20/14 23/23/14 24/24/14
f 26/25/15 25/26/15 28/27/15 29/28/15
f 27/29/16 26/25/16 29/28/16 30/30/16
f 29/28/17 28/27/17 31/31/17 32/32/17
f 30/30/18 29/28/18 32/32/18 33/33/18
f 33/33/19 32/32/19 35/34/19 36/35/19
f 32/32/20 31/31/20 34/36/20 35/34/20
f 35/34/21 34/36/21 37/37/21 38/38/21
f 36/35/22 35/34/22 38/38/22 39/39/22
f 38/38/23 37/37/23 40/40/23 41/41/23
f 39/39/24 38/38/24 41/41/24 42/42/24
f 41/41/25 40/40/25 43/43/25 44/44/25
f 42/42/26 41/41/26 44/44/26 45/45/26
f 44/44/27 43/43/27 1/2/27 2/1/27
f 45/45/28 44/44/28 2/1/28 3/5/28
